{
  "title": "The Hunger Games Mockingjay Part 1 (2014) HDRip XviD-MAX",
  "uid": 11706678,
  "size": 1826033901,
  "categoryP": "video",
  "categoryS": "movies",
  "magnet": "?xt=urn:btih:6079f272558c5c847945aacb55e8e5f4927ab611&amp;dn=The+Hunger+Games+Mockingjay+Part+1+%282014%29+HDRip+XviD-MAX&amp;tr=udp%3A%2F%2Ftracker.openbittorrent.com%3A80&amp;tr=udp%3A%2F%2Fopen.demonii.com%3A1337&amp;tr=udp%3A%2F%2Ftracker.coppersurfer.tk%3A6969&amp;tr=udp%3A%2F%2Fexodus.desync.com%3A6969",
  "seeders": 911,
  "leechers": 200,
  "uploader": "extremezone",
  "files": 4,
  "time": 1424159745,
  "description": " &lt;a href=&quot;http://i.imgur.com/VZMoOej.jpg&quot; rel=&quot;nofollow&quot; target=&quot;_NEW&quot;&gt;http://i.imgur.com/VZMoOej.jpg&lt;/a&gt;\n\nScreens:\n &lt;a href=&quot;\nhttp://i.imgur.com/DJbU2UZ.jpg&quot; rel=&quot;nofollow&quot; target=&quot;_NEW&quot;&gt;\nhttp://i.imgur.com/DJbU2UZ.jpg&lt;/a&gt; &lt;a href=&quot;\nhttp://i.imgur.com/9T4XyQ7.jpg&quot; rel=&quot;nofollow&quot; target=&quot;_NEW&quot;&gt;\nhttp://i.imgur.com/9T4XyQ7.jpg&lt;/a&gt; &lt;a href=&quot;\nhttp://i.imgur.com/XOJbMin.jpg&quot; rel=&quot;nofollow&quot; target=&quot;_NEW&quot;&gt;\nhttp://i.imgur.com/XOJbMin.jpg&lt;/a&gt; &lt;a href=&quot;\nhttp://i.imgur.com/E1G2Yuw.jpg&quot; rel=&quot;nofollow&quot; target=&quot;_NEW&quot;&gt;\nhttp://i.imgur.com/E1G2Yuw.jpg&lt;/a&gt;\n\nScreenCaps:\n &lt;a href=&quot;\nhttp://i.imgur.com/VokBDor.jpg&quot; rel=&quot;nofollow&quot; target=&quot;_NEW&quot;&gt;\nhttp://i.imgur.com/VokBDor.jpg&lt;/a&gt;\n\nThe Hunger Games Mockingjay Part 1 (2014) HDRip XviD-MAX\nFormat                                   : AVI\nFormat/Info                              : Audio Video Interleave\nFormat profile                           : OpenDML\nFormat settings                          : rec\nFile size                                : 1.69 GiB\nDuration                                 : 1h 57mn\nOverall bit rate                         : 2 056 Kbps\nWriting application                      : VirtualDubMod 1.5.10.2 (build 2542/release)\nWriting library                          : VirtualDubMod build 2542/release\nOriginal source form                     : MAX TORRENTZ\nCopyright                                : SIGISMUNT\n\nVideo\nID                                       : 0\nFormat                                   : MPEG-4 Visual\nFormat profile                           : Advanced Simple@L5\nFormat settings, BVOP                    : 2\nFormat settings, QPel                    : No\nFormat settings, GMC                     : No warppoints\nFormat settings, Matrix                  : Default (H.263)\nMuxing mode                              : Packed bitstream\nCodec ID                                 : XVID\nCodec ID/Hint                            : XviD\nDuration                                 : 1h 57mn\nBit rate                                 : 1 666 Kbps\nWidth                                    : 720 pixels\nHeight                                   : 304 pixels\nDisplay aspect ratio                     : 2.35:1\nFrame rate                               : 25.000 fps\nColor space                              : YUV\nChroma subsampling                       : 4:2:0\nBit depth                                : 8 bits\nScan type                                : Progressive\nCompression mode                         : Lossy\nBits/(Pixel*Frame)                       : 0.304\nStream size                              : 1.37 GiB (81%)\nWriting library                          : XviD 66\n\nAudio\nID                                       : 1\nFormat                                   : AC-3\nFormat/Info                              : Audio Coding 3\nMode extension                           : CM (complete main)\nFormat settings, Endianness              : Big\nCodec ID                                 : 2000\nDuration                                 : 1h 57mn\nBit rate mode                            : Constant\nBit rate                                 : 384 Kbps\nChannel(s)                               : 6 channels\nChannel positions                        : Front: L C R, Side: L R, LFE\nSampling rate                            : 48.0 KHz\nBit depth                                : 16 bits\nCompression mode                         : Lossy\nStream size                              : 324 MiB (19%)\nAlignment                                : Aligned on interleaves\nInterleave, duration                     : 64 ms (1.60 video frames)\nInterleave, preload duration             : 192 ms\n\nSource: WEBDL (perfect a/v/sync quality,sample included)\nThis torrent is not seedbox supported,please seed it to the MAX\n\nUploader Note: If you think image it's a little dark then VLC-&gt;Ctrl+E-&gt;Video Effects-&gt;\n-&gt;Image adjust-&gt;Brightness-&gt;Close, simple as 1,2,3 so no complaints about this please,thanks\n\nNote: If you have something as early releases, seedboxes &lt;a href=&quot; http://torentz.3xforum.ro&quot; rel=&quot;nofollow&quot; target=&quot;_NEW&quot;&gt; http://torentz.3xforum.ro&lt;/a&gt;\n\nHow To Get Your MAXSPEED (uTorrent)\n\nTorrent Client - Preferences - Bandwidth - Number of connections - Set aprox. 500 for each\nTorrent Client - Preferences - BiTorrent - Protocol Encryption - Forced\nBandwidth Allocation - High (Set download/upload limit - Unlimited)\nStop Other Active Torrents - Start downloading and wait for connections.\nEnjoy and Seed for at least 1:1 ratio. Don't forget to say thanks/leave reviews.\nIf screens/Caps image host is dead googlesearch &quot;release name&quot;+&quot;screens&quot; or &quot;sample&quot;.\nGreets to all actual/future p2p/scene QUALITY groups and affiliate websites.\nDon't trust IMDb robot or bad ratings,always watch some trailers first.\nIgnore stupid comments/fake/mislabeled/no-DVDrips/CAM/TS/RAR uploads.\nPlease spread this release/torrent to your friends/forums/etc.\nIf you need translation subs visit some subtitles sites.\nReport if you see online streaming or other spam links.\nRecommended movie player VLC PLAYER",
  "parsed": {
    "xt": "urn:btih:6079f272558c5c847945aacb55e8e5f4927ab611",
    "dn": "The Hunger Games Mockingjay Part 1 (2014) HDRip XviD-MAX",
    "tr": [
      "udp://exodus.desync.com:6969",
      "udp://open.demonii.com:1337",
      "udp://tracker.coppersurfer.tk:6969",
      "udp://tracker.openbittorrent.com:80"
    ],
    "infoHash": "6079f272558c5c847945aacb55e8e5f4927ab611",
    "infoHashBuffer": {
      "type": "Buffer",
      "data": [
        96,
        121,
        242,
        114,
        85,
        140,
        92,
        132,
        121,
        69,
        170,
        203,
        85,
        232,
        229,
        244,
        146,
        122,
        182,
        17
      ]
    },
    "name": "The Hunger Games Mockingjay Part 1 (2014) HDRip XviD-MAX",
    "announce": [
      "udp://exodus.desync.com:6969",
      "udp://open.demonii.com:1337",
      "udp://tracker.coppersurfer.tk:6969",
      "udp://tracker.openbittorrent.com:80"
    ],
    "urlList": []
  },
  "previous": 50,
  "peers": 50,
  "last_updated": "2016-12-27T01:50:32.899Z"
}